<svg xmlns="http://www.w3.org/2000/svg" width="877.81" height="549.5" viewBox="0 0 232.25 145.39"><path d="M89.6301463 72.22322806V51.73831925h7.63412868V66.75210308h11.70566255V51.73831925h7.63412868V92.7081395h-7.63412868V74.64070262H97.26427498v18.06743689H89.6301463zM128.9459046 93.1250847c-4.10157761-1.34221827-6.85797625-4.61722661-8.16828015-9.70513582-.65586634-2.54672218-.66761396-9.39502782-.02084938-12.15189741 1.81133452-7.72087055 7.65837004-11.62420976 14.93381007-9.96944665 2.03201247.46217352 4.32876174 1.83216802 5.54480953 3.30744659 3.7144645 4.50628835 4.88990893 13.30663004 2.70254216 20.233441-1.14332104 3.62059468-3.80015333 6.77002522-6.67041919 7.90716289-1.78043617.70537302-6.64633921.92665157-8.32161568.3784294zm6.05651355-6.91842622c1.17877292-.84877069 2.17065288-3.23513258 2.4804037-5.96759412.65745914-5.7997937-.55452726-10.92033695-2.86789782-12.1166281-1.1658479-.602883-3.35776555-.5614065-4.22366818.07992084-2.04414903 1.51399279-2.7138003 3.76203177-2.7138003 9.11029096 0 5.56426718.75138453 7.90056412 2.92251102 9.08700474 1.14592721.62620624 3.40210222.52730135 4.40245158-.19299432zM148.15846173 77.31264806V61.9171566h7.12518429v3.33277804l1.81283472-1.52595207c.99705791-.8392747 2.31269587-1.7609203 2.9236408-2.04809665 1.52791-.7182028 4.12099823-.71445625 5.6136257.0081228 1.29931565.62898968 2.99629875 2.47155594 3.3984086 3.68996384.15777262.4780619.3456128.86919937.4174188.86919937.07180598 0 1.00764928-.8083737 2.07965117-1.79638806 1.07200188-.98801171 2.65889076-2.14594584 3.5264206-2.57318342 1.41540804-.69705708 1.77041629-.76704801 3.45831086-.68181164 1.51844312.07667702 2.0810376.22737462 2.91894175.78187277 1.38375562.91572682 2.27862513 2.137913 3.08202461 4.20934879l.66485697 1.71422352.0790874 12.4054581.07909004 12.4054581H178.1860294v-9.91184097c0-5.98452234-.1062498-10.4072756-.2681579-11.16222675-.65099002-3.03545748-3.57613895-3.68058956-6.79167101-1.4978795l-.82529133.56021056-.0018521 11.00586966-.0018521 11.005867h-7.0944447l-.0789895-10.49692527c-.08623916-11.4603834-.13412393-11.84627678-1.58823032-12.79904563-1.25638393-.82321169-2.63672375-.7656166-4.4708259.18655429l-1.6540593.85870324-.06629203 11.12535669-.06629466 11.12535669h-7.11960682zM198.76435029 93.10506348c-4.801352-1.00649305-8.0553337-4.103099-9.59933053-9.13506679-.57250852-1.86583659-.63900692-2.52937592-.65441111-6.53011452-.01510786-3.92413303.05248856-4.6940571.56895513-6.48007338.82036209-2.83692538 1.94822072-4.84421758 3.73283206-6.64345523 2.4990332-2.51951744 5.82064571-3.6710671 9.58100001-3.32157812 4.77928289.44418696 7.86365702 3.24578746 9.28006256 8.42927307.26499874.96978174.46377955 2.98906497.5448487 5.53474204l.12763363 4.00791947H195.42500786l.16693524 1.08150052c.50469513 3.26967165 2.00760706 5.35019066 4.45111424 6.16179496 2.11476438.70240965 5.30058078.47632622 7.40712977-.52565828.90973394-.43271716 2.19898474-1.20510981 2.8650006-1.71643017.66601585-.51132037 1.32445925-.92967315 1.46320815-.92967315.15584644 0 .25226951 1.5056107.25226951 3.93912711v3.93912712l-.99855017.50942328c-.54920114.28018333-1.88907518.80836047-2.97749463 1.17373256-2.45680527.82472246-6.67288777 1.05408412-9.29027028.5054095zm6.395599-20.87228916c0-.62456581-.2379845-1.77164398-.52885711-2.5490664-.71664439-1.91540414-1.81674266-2.67713397-3.86635803-2.67713397-2.69227093 0-4.16652555 1.1963229-4.888078 3.9665541-.67762853 2.60158937-1.06088928 2.39522023 4.44834402 2.39522023h4.83494913z" fill="#fff"/><path fill="#fff" d="M74.18808 43.049824h147.59314v59.291729H74.18808z"/><g fill="teal" stroke-width=".26458001"><path d="M69.844146 30.48814v84.332h162.55v-84.332zm19.786 21.145h7.8434v15.034h11.581v-15.034h7.8429v41.075h-7.8429v-18.096h-11.581v18.096h-7.8434zm43.096 9.1307c4.0033 0 7.0946 1.4712 9.2733 4.4137 2.1923 2.9425 3.2882 6.9609 3.2882 12.055s-1.1029 9.1126-3.3088 12.055c-2.1923 2.9241-5.2766 4.3863-9.2527 4.3863-3.9761 0-7.0669-1.4622-9.2728-4.3863-2.1923-2.9425-3.2887-6.9609-3.2887-12.055 0-5.131 1.1029-9.1584 3.3088-12.082 2.2195-2.9241 5.3038-4.3863 9.2527-4.3863zm68.646 0c3.731 0 6.5359 1.2781 8.415 3.8344 1.8791 2.5379 2.819 6.1976 2.819 10.979v3.4758h-16.83c.10894 2.4276.79003 4.2854 2.0428 5.5728 1.2664 1.2873 3.1249 1.9306 5.5759 1.9306 1.5523 0 3.0569-.37666 4.5139-1.1307 1.457-.75401 2.6077-1.5634 3.452-2.4278h.81701v7.9721c-1.6612.90113-3.2273 1.5545-4.6979 1.959-1.4706.4045-3.0976.60668-4.8814.60668-4.6025 0-8.1292-1.3976-10.58-4.193-2.4508-2.7954-3.6768-6.7767-3.6768-11.944 0-5.1126 1.1573-9.159 3.4721-12.138 2.3285-2.9977 5.5149-4.4964 9.5591-4.4964zm-38.378.11059c1.5115 0 2.846.45972 4.0034 1.3792 1.1574.90114 2.063 2.2343 2.7166 3.9998 1.4706-1.6735 2.9002-2.9882 4.2892-3.9445 1.3889-.95631 2.7506-1.4345 4.085-1.4345 2.4782 0 4.3574 1.002 5.6374 3.0065 1.2936 2.0046 1.9404 4.8919 1.9404 8.662v20.165h-7.3939v-15.476c0-1.5264-.0272-2.8135-.0816-3.8618-.0409-1.0483-.18381-1.9037-.42892-2.5657-.23148-.66206-.59895-1.1403-1.1028-1.4345-.50382-.31264-1.2121-.4687-2.1244-.4687-.61275 0-1.2118.14706-1.7973.44131-.58552.27586-1.3003.74457-2.1446 1.4066v21.958h-7.3939v-15.476c0-1.508-.0272-2.7861-.0817-3.8344-.0545-1.0666-.20448-1.9311-.44959-2.5931-.2451-.66206-.61962-1.1403-1.1234-1.4345-.49021-.31264-1.1844-.4687-2.0831-.4687-.72169 0-1.4229.20208-2.1038.60668-.68083.3862-1.294.79989-1.8386 1.2413v21.958h-7.353v-30.978h7.353v3.4205c1.2664-1.3425 2.4785-2.391 3.636-3.145 1.1575-.754 2.437-1.1307 3.8396-1.1307zm37.785 6.0963c-1.4162 0-2.5805.49674-3.4928 1.4898-.91233.99309-1.4228 2.5838-1.5317 4.7723h9.5384c-.0409-2.0781-.42192-3.6414-1.1436-4.6896-.72169-1.0483-1.8453-1.5725-3.3703-1.5725zm-68.054.71727c-.70807 0-1.3413.12855-1.8996.38602-.54467.25747-1.0687.77272-1.5725 1.5451-.44935.71723-.81028 1.7012-1.0826 2.9518-.25872 1.2506-.38809 2.8228-.38809 4.717 0 1.6919.11578 3.1631.34727 4.4137.23148 1.2322.57177 2.2251 1.0211 2.9792.43574.71723.95322 1.2415 1.5524 1.5725.61276.33103 1.3074.49661 2.0836.49661.66722 0 1.3005-.14706 1.8996-.44131.61276-.31264 1.1302-.8279 1.5524-1.5451.47659-.79079.83047-1.7377 1.062-2.8412.24511-1.1218.36742-2.6666.36742-4.6343 0-1.8207-.12231-3.3469-.36742-4.579-.2451-1.2322-.58539-2.2161-1.0211-2.9518-.43574-.75401-.96028-1.2873-1.573-1.5999-.61276-.31264-1.2732-.46922-1.9813-.46922z"/><path d="M75.9799448 145.3509447L.1410364 72.66049925 75.97700052-.03789305l.00147214 72.69441888z"/></g></svg>