<svg width="495.71" height="495.71" viewBox="0 0 131.16 131.16" xmlns="http://www.w3.org/2000/svg"><path d="M27.9687518 0C12.47335952 0 0 12.47468242 0 27.9687518V103.1862c0 15.49539228 12.47468242 27.9687518 27.9687518 27.9687518H103.1862c15.49539228 0 27.9687518-12.47468242 27.9687518-27.9687518V27.9687518C131.1549518 12.47335952 118.68026938 0 103.1862 0H27.9687518zm-2.26805913 52.7281482h79.7523494c3.35037654 0 6.0469759 2.6973931 6.0469759 6.04750506v13.6073494c0 3.35037654-2.69686394 6.0469759-6.0469759 6.0469759h-79.7523494c-3.35037654 0-6.04750506-2.69686394-6.04750506-6.0469759v-13.6073494c0-3.35037654 2.6973931-6.04750506 6.04750506-6.04750506z" fill="#37a483"/></svg>