<svg xmlns="http://www.w3.org/2000/svg" width="495.71432" height="495.71432" viewBox="0 0 131.15775 131.15775"><path d="M27.97038545 0C12.47487535 0 0 12.47487535 0 27.97038545v75.21711715c0 15.49551116 12.47487535 27.97038545 27.97038545 27.97038545h75.21711715c15.49551116 0 27.97038545-12.47487429 27.97038545-27.97038545V27.97038545C131.15788805 12.47487535 118.68301376 0 103.1875026 0H27.97038545zm30.80484032 19.65461469h13.60743916c3.35037914 0 6.04717394 2.69731205 6.04717394 6.04769305v27.0252255h27.02574356c3.35037914 0 6.04717394 2.69731074 6.04717394 6.04769253v13.60743916c0 3.35037914-2.6967948 6.04717394-6.04717394 6.04717394H78.42983887v27.02574356c0 3.35037914-2.6967948 6.04717394-6.04717394 6.04717394H58.77522577c-3.35038179 0-6.04769252-2.6967948-6.04769252-6.04717394V78.42983887h-27.0252255c-3.350381 0-6.04769306-2.6967948-6.04769306-6.04717394V58.77522577c0-3.35038179 2.69731205-6.04769252 6.04769305-6.04769252h27.0252255v-27.0252255c0-3.350381 2.69731074-6.04769306 6.04769253-6.04769306z" fill="#37a483"/></svg>